<svg width="980" height="680" viewBox="0 0 980 680" fill="none" xmlns="http://www.w3.org/2000/svg" role="img" aria-label="Turboflare hot path flows">
  <defs>
    <marker id="arrow" markerWidth="10" markerHeight="10" refX="9" refY="3" orient="auto" markerUnits="strokeWidth"><path d="M0,0 L0,6 L9,3 z" fill="#64748B"/></marker>
    <filter id="soft" x="-10%" y="-10%" width="120%" height="120%"><feDropShadow dx="0" dy="10" stdDeviation="12" flood-color="#020617" flood-opacity="0.22"/></filter>
  </defs>
  <rect width="980" height="680" rx="24" fill="#0F172A"/>
  <g font-family="Inter, ui-sans-serif, system-ui" font-size="15">
    <text x="52" y="48" fill="#E2E8F0" font-size="23" font-weight="800">Hot path</text>
    <text x="52" y="76" fill="#94A3B8" font-size="13">Request handlers stay small. Optional work moves to cache fill, metrics, or metadata indexing.</text>

    <rect x="44" y="112" width="892" height="148" rx="20" fill="#111827" stroke="#334155" filter="url(#soft)"/>
    <text x="74" y="146" fill="#FFEDD5" font-weight="800">Upload</text>
    <text x="158" y="146" fill="#94A3B8" font-size="12">write scope required</text>
    <rect x="74" y="174" width="132" height="48" rx="13" fill="#1E293B" stroke="#F97316"/>
    <text x="140" y="203" fill="#FED7AA" text-anchor="middle" font-weight="700">Turbo write</text>
    <rect x="247" y="174" width="132" height="48" rx="13" fill="#1E293B" stroke="#38BDF8"/>
    <text x="313" y="203" fill="#E0F2FE" text-anchor="middle" font-weight="700">Auth + scope</text>
    <rect x="420" y="174" width="132" height="48" rx="13" fill="#1E293B" stroke="#A78BFA"/>
    <text x="486" y="203" fill="#EDE9FE" text-anchor="middle" font-weight="700">Team key</text>
    <rect x="593" y="174" width="132" height="48" rx="13" fill="#1E293B" stroke="#FBBF24"/>
    <text x="659" y="203" fill="#FEF3C7" text-anchor="middle" font-weight="700">Policy checks</text>
    <rect x="766" y="174" width="132" height="48" rx="13" fill="#1E293B" stroke="#22C55E"/>
    <text x="832" y="203" fill="#DCFCE7" text-anchor="middle" font-weight="700">Stream to R2</text>
    <path d="M207 198 H242" stroke="#64748B" stroke-width="2" marker-end="url(#arrow)"/>
    <path d="M380 198 H415" stroke="#64748B" stroke-width="2" marker-end="url(#arrow)"/>
    <path d="M553 198 H588" stroke="#64748B" stroke-width="2" marker-end="url(#arrow)"/>
    <path d="M726 198 H761" stroke="#64748B" stroke-width="2" marker-end="url(#arrow)"/>
    <text x="832" y="243" fill="#94A3B8" text-anchor="middle" font-size="12">metadata index can run later</text>

    <rect x="44" y="292" width="892" height="158" rx="20" fill="#111827" stroke="#334155" filter="url(#soft)"/>
    <text x="74" y="326" fill="#E0F2FE" font-weight="800">Download</text>
    <text x="176" y="326" fill="#94A3B8" font-size="12">read scope required</text>
    <rect x="74" y="354" width="132" height="48" rx="13" fill="#1E293B" stroke="#38BDF8"/>
    <text x="140" y="383" fill="#E0F2FE" text-anchor="middle" font-weight="700">Turbo read</text>
    <rect x="247" y="354" width="132" height="48" rx="13" fill="#1E293B" stroke="#38BDF8"/>
    <text x="313" y="383" fill="#E0F2FE" text-anchor="middle" font-weight="700">Auth + scope</text>
    <rect x="420" y="354" width="132" height="48" rx="13" fill="#1E293B" stroke="#A78BFA"/>
    <text x="486" y="383" fill="#EDE9FE" text-anchor="middle" font-weight="700">Team key</text>
    <rect x="593" y="354" width="132" height="48" rx="13" fill="#1E293B" stroke="#FBBF24"/>
    <text x="659" y="383" fill="#FEF3C7" text-anchor="middle" font-weight="700">Cache check</text>
    <rect x="766" y="354" width="132" height="48" rx="13" fill="#1E293B" stroke="#22C55E"/>
    <text x="832" y="383" fill="#DCFCE7" text-anchor="middle" font-weight="700">Stream body</text>
    <path d="M207 378 H242" stroke="#64748B" stroke-width="2" marker-end="url(#arrow)"/>
    <path d="M380 378 H415" stroke="#64748B" stroke-width="2" marker-end="url(#arrow)"/>
    <path d="M553 378 H588" stroke="#64748B" stroke-width="2" marker-end="url(#arrow)"/>
    <path d="M726 378 H761" stroke="#64748B" stroke-width="2" marker-end="url(#arrow)"/>
    <text x="659" y="424" fill="#94A3B8" text-anchor="middle" font-size="12">optional edge acceleration</text>
    <text x="832" y="424" fill="#94A3B8" text-anchor="middle" font-size="12">R2 is source of truth</text>

    <rect x="44" y="482" width="892" height="126" rx="20" fill="#111827" stroke="#334155" filter="url(#soft)"/>
    <text x="74" y="516" fill="#DCFCE7" font-weight="800">Metadata</text>
    <text x="178" y="516" fill="#94A3B8" font-size="12">body is not downloaded</text>
    <rect x="74" y="544" width="154" height="40" rx="12" fill="#1E293B" stroke="#38BDF8"/>
    <text x="151" y="569" fill="#E0F2FE" text-anchor="middle" font-weight="700">Metadata read</text>
    <rect x="293" y="544" width="154" height="40" rx="12" fill="#1E293B" stroke="#38BDF8"/>
    <text x="370" y="569" fill="#E0F2FE" text-anchor="middle" font-weight="700">Auth + scope</text>
    <rect x="512" y="544" width="154" height="40" rx="12" fill="#1E293B" stroke="#22C55E"/>
    <text x="589" y="569" fill="#DCFCE7" text-anchor="middle" font-weight="700">R2 metadata</text>
    <rect x="731" y="544" width="154" height="40" rx="12" fill="#1E293B" stroke="#A78BFA"/>
    <text x="808" y="569" fill="#EDE9FE" text-anchor="middle" font-weight="700">Headers only</text>
    <path d="M229 564 H288" stroke="#64748B" stroke-width="2" marker-end="url(#arrow)"/>
    <path d="M448 564 H507" stroke="#64748B" stroke-width="2" marker-end="url(#arrow)"/>
    <path d="M667 564 H726" stroke="#64748B" stroke-width="2" marker-end="url(#arrow)"/>
  </g>
</svg>
