<svg width="980" height="280" viewBox="0 0 980 280" fill="none" xmlns="http://www.w3.org/2000/svg" role="img" aria-label="Turboflare request flow">
  <defs>
    <marker id="arrow" markerWidth="10" markerHeight="10" refX="9" refY="3" orient="auto" markerUnits="strokeWidth"><path d="M0,0 L0,6 L9,3 z" fill="#64748B"/></marker>
  </defs>
  <rect width="980" height="280" rx="24" fill="#0F172A"/>
  <g font-family="Inter, ui-sans-serif, system-ui" font-size="16">
    <rect x="38" y="92" width="142" height="86" rx="16" fill="#1E293B" stroke="#38BDF8"/>
    <text x="109" y="128" fill="#E0F2FE" text-anchor="middle" font-weight="700">Turbo CLI</text>
    <text x="109" y="153" fill="#94A3B8" text-anchor="middle" font-size="13">build/test task</text>

    <rect x="242" y="92" width="170" height="86" rx="16" fill="#1E293B" stroke="#F97316"/>
    <text x="327" y="125" fill="#FFEDD5" text-anchor="middle" font-weight="700">Worker</text>
    <text x="327" y="151" fill="#94A3B8" text-anchor="middle" font-size="13">/v8/artifacts</text>

    <rect x="474" y="42" width="160" height="76" rx="16" fill="#1E293B" stroke="#A78BFA"/>
    <text x="554" y="75" fill="#EDE9FE" text-anchor="middle" font-weight="700">Auth</text>
    <text x="554" y="99" fill="#94A3B8" text-anchor="middle" font-size="13">token + scope</text>

    <rect x="474" y="162" width="160" height="76" rx="16" fill="#1E293B" stroke="#22C55E"/>
    <text x="554" y="195" fill="#DCFCE7" text-anchor="middle" font-weight="700">Tenant</text>
    <text x="554" y="219" fill="#94A3B8" text-anchor="middle" font-size="13">team + branch</text>

    <rect x="710" y="92" width="210" height="86" rx="16" fill="#1E293B" stroke="#FBBF24"/>
    <text x="815" y="125" fill="#FEF3C7" text-anchor="middle" font-weight="700">R2</text>
    <text x="815" y="151" fill="#94A3B8" text-anchor="middle" font-size="13">v1/team/.../artifact</text>

    <path d="M180 135 H238" stroke="#64748B" stroke-width="2" marker-end="url(#arrow)"/>
    <path d="M412 125 C440 105 444 90 470 82" stroke="#64748B" stroke-width="2" marker-end="url(#arrow)"/>
    <path d="M412 145 C440 165 444 190 470 198" stroke="#64748B" stroke-width="2" marker-end="url(#arrow)"/>
    <path d="M634 80 C674 88 682 112 706 124" stroke="#64748B" stroke-width="2" marker-end="url(#arrow)"/>
    <path d="M634 200 C674 190 682 158 706 146" stroke="#64748B" stroke-width="2" marker-end="url(#arrow)"/>
  </g>
</svg>
