<svg width="64" height="64" viewBox="0 0 64 64" fill="none" xmlns="http://www.w3.org/2000/svg">
  <rect width="64" height="64" rx="16" fill="#0F172A"/>
  <path d="M13 38.5C13 31.5964 18.5964 26 25.5 26H38.5C45.4036 26 51 31.5964 51 38.5C51 45.4036 45.4036 51 38.5 51H25.5C18.5964 51 13 45.4036 13 38.5Z" fill="#F97316"/>
  <path d="M20 28.5C20 19.9396 26.9396 13 35.5 13C44.0604 13 51 19.9396 51 28.5C51 37.0604 44.0604 44 35.5 44H20V28.5Z" fill="#FDBA74"/>
  <path d="M28 39L34.5 25H28L37 25L30.5 39H37L28 39Z" fill="#0F172A"/>
</svg>
